/* XPM */
static const char * const fmslogo_48x48_xpm[] = {
"48 48 745 2",
"  	c None",
". 	c #114F16",
"+ 	c #104F16",
"@ 	c #124F16",
"# 	c #105C1E",
"$ 	c #06702C",
"% 	c #0D591C",
"& 	c #125317",
"* 	c #115317",
"= 	c #105619",
"- 	c #125117",
"; 	c #125016",
"> 	c #195D1E",
", 	c #13742F",
"' 	c #007130",
") 	c #1A742E",
"! 	c #237629",
"~ 	c #187124",
"{ 	c #028D3B",
"] 	c #038738",
"^ 	c #086E29",
"/ 	c #145B1A",
"( 	c #145718",
"_ 	c #135417",
": 	c #115117",
"< 	c #01702F",
"[ 	c #1E792D",
"} 	c #379C3D",
"| 	c #349E3F",
"1 	c #3AA542",
"2 	c #3BA442",
"3 	c #16953D",
"4 	c #009540",
"5 	c #00923F",
"6 	c #027D33",
"7 	c #1A7822",
"8 	c #1A7320",
"9 	c #176D20",
"0 	c #097D2F",
"a 	c #087A2E",
"b 	c #0E6521",
"c 	c #11571A",
"d 	c #115116",
"e 	c #0F6A25",
"f 	c #2F9339",
"g 	c #3EAE46",
"h 	c #3FB247",
"i 	c #3FB347",
"j 	c #138F3B",
"k 	c #008A3B",
"l 	c #008639",
"m 	c #027531",
"n 	c #2A9A36",
"o 	c #24942B",
"p 	c #148D2D",
"q 	c #00933F",
"r 	c #018136",
"s 	c #12621E",
"t 	c #145818",
"u 	c #125217",
"v 	c #135A18",
"w 	c #25802C",
"x 	c #3BA843",
"y 	c #3FB147",
"z 	c #3AAE45",
"A 	c #0D8035",
"B 	c #0D7D34",
"C 	c #2D9E3F",
"D 	c #3AAE43",
"E 	c #02933D",
"F 	c #009640",
"G 	c #008539",
"H 	c #167C26",
"I 	c #1A7220",
"J 	c #16651C",
"K 	c #155B1A",
"L 	c #135518",
"M 	c #105218",
"N 	c #07712A",
"O 	c #078233",
"P 	c #158A39",
"Q 	c #39A943",
"R 	c #46B64D",
"S 	c #44B54B",
"T 	c #3EB246",
"U 	c #249C3F",
"V 	c #008C3C",
"W 	c #00953F",
"X 	c #008438",
"Y 	c #188C2B",
"Z 	c #208E28",
"` 	c #1E8425",
" .	c #1A7621",
"..	c #176A1D",
"+.	c #145D1B",
"@.	c #125518",
"#.	c #0F581B",
"$.	c #00933E",
"%.	c #018739",
"&.	c #2FA141",
"*.	c #70CE70",
"=.	c #89DA84",
"-.	c #5CC25F",
";.	c #3EB146",
">.	c #1B963D",
",.	c #008E3D",
"'.	c #007633",
").	c #188D2C",
"!.	c #219B2B",
"~.	c #179430",
"{.	c #109032",
"].	c #0E8B32",
"^.	c #098431",
"/.	c #106D23",
"(.	c #145B19",
"_.	c #096726",
":.	c #008D3C",
"<.	c #007D36",
"[.	c #21913B",
"}.	c #6FCE6F",
"|.	c #A0EA98",
"1.	c #9DE895",
"2.	c #85D881",
"3.	c #47B54E",
"4.	c #3CB046",
"5.	c #138938",
"6.	c #007431",
"7.	c #148336",
"8.	c #30A241",
"9.	c #38AC42",
"0.	c #229E2F",
"a.	c #01933D",
"b.	c #00963E",
"c.	c #048134",
"d.	c #197220",
"e.	c #17641C",
"f.	c #145819",
"g.	c #105518",
"h.	c #04742E",
"i.	c #017833",
"j.	c #117F34",
"k.	c #3AAC44",
"l.	c #A1EB99",
"m.	c #9CE795",
"n.	c #6DCA6D",
"o.	c #39AB44",
"p.	c #3AAD44",
"q.	c #2FAA44",
"r.	c #00893A",
"s.	c #168429",
"t.	c #1C7C22",
"u.	c #196E1F",
"v.	c #16631C",
"w.	c #166D1F",
"x.	c #248C37",
"y.	c #3FB146",
"z.	c #8FDF8A",
"A.	c #66C667",
"B.	c #40B248",
"C.	c #1EA041",
"D.	c #008B3C",
"E.	c #057B2F",
"F.	c #209028",
"G.	c #1E8526",
"H.	c #1B7621",
"I.	c #16681D",
"J.	c #155E1A",
"K.	c #145A19",
"L.	c #217C27",
"M.	c #3BA742",
"N.	c #9FE997",
"O.	c #90DF8A",
"P.	c #54BC58",
"Q.	c #0C8838",
"R.	c #00943F",
"S.	c #007934",
"T.	c #11832E",
"U.	c #219A2A",
"V.	c #21952A",
"W.	c #118C30",
"X.	c #028C3A",
"Y.	c #0E7528",
"Z.	c #16631B",
"`.	c #125017",
" +	c #16601B",
".+	c #28882E",
"++	c #3CAB43",
"@+	c #78D176",
"#+	c #47B64E",
"$+	c #36AA44",
"%+	c #118939",
"&+	c #028538",
"*+	c #007733",
"=+	c #22913B",
"-+	c #249F39",
";+	c #03943D",
">+	c #008F3D",
",+	c #0D782A",
"'+	c #17651C",
")+	c #124E16",
"!+	c #0D6421",
"~+	c #0E792B",
"{+	c #179339",
"]+	c #19953E",
"^+	c #3BAE45",
"/+	c #97E491",
"(+	c #6ECC6E",
"_+	c #44B44B",
":+	c #2C9F40",
"<+	c #138537",
"[+	c #25953C",
"}+	c #22A042",
"|+	c #009440",
"1+	c #00873A",
"2+	c #0F7226",
"3+	c #17681D",
"4+	c #0F5118",
"5+	c #028B3A",
"6+	c #22993E",
"7+	c #9FEA97",
"8+	c #96E490",
"9+	c #63C465",
"0+	c #2EA743",
"a+	c #02933F",
"b+	c #009740",
"c+	c #007E36",
"d+	c #137C28",
"e+	c #1A7721",
"f+	c #176B1E",
"g+	c #16661C",
"h+	c #0D5E1E",
"i+	c #01913C",
"j+	c #098739",
"k+	c #85D882",
"l+	c #4DB952",
"m+	c #40B348",
"n+	c #38AD45",
"o+	c #05873A",
"p+	c #008B3B",
"q+	c #057831",
"r+	c #209228",
"s+	c #1E8826",
"t+	c #1B7922",
"u+	c #186D1E",
"v+	c #0A6725",
"w+	c #00923E",
"x+	c #00913E",
"y+	c #017E35",
"z+	c #2D9F3F",
"A+	c #6ECD6E",
"B+	c #77D075",
"C+	c #4BB851",
"D+	c #23953C",
"E+	c #198E3A",
"F+	c #118738",
"G+	c #087A32",
"H+	c #29A031",
"I+	c #209328",
"J+	c #1E8926",
"K+	c #1B7B23",
"L+	c #196F1F",
"M+	c #0A6323",
"N+	c #00903E",
"O+	c #008136",
"P+	c #0B7A33",
"Q+	c #3AAD45",
"R+	c #6ECE6F",
"S+	c #99E693",
"T+	c #6ECB6E",
"U+	c #3CB045",
"V+	c #3DB145",
"W+	c #2BA133",
"X+	c #16912C",
"Y+	c #078E37",
"Z+	c #088331",
"`+	c #19721F",
" @	c #135318",
".@	c #0F6B22",
"+@	c #027D34",
"@@	c #007B35",
"#@	c #0E7C33",
"$@	c #FFFFFF",
"%@	c #FCFEFC",
"&@	c #A1EA99",
"*@	c #FCFEFB",
"=@	c #C1F1BB",
"-@	c #EBFAE9",
";@	c #F9FDF8",
">@	c #F5FBF5",
",@	c #F4FAF4",
"'@	c #D5EED7",
")@	c #7CCB82",
"!@	c #3EB248",
"~@	c #00903D",
"{@	c #008D3D",
"]@	c #0C792B",
"^@	c #1A7321",
"/@	c #186C1F",
"(@	c #1D8728",
"_@	c #1F8F37",
":@	c #3CAF45",
"<@	c #252504",
"[@	c #A7A79A",
"}@	c #B6EFB0",
"|@	c #B4EEAE",
"1@	c #A9A99D",
"2@	c #F5F5F5",
"3@	c #838370",
"4@	c #3A3A1D",
"5@	c #2B2B0B",
"6@	c #444427",
"7@	c #949484",
"8@	c #FAFAFA",
"9@	c #7ECC83",
"0@	c #01893A",
"a@	c #00883A",
"b@	c #1B7A23",
"c@	c #1A7420",
"d@	c #145719",
"e@	c #197120",
"f@	c #1E8D29",
"g@	c #37AB3F",
"h@	c #5F5F47",
"i@	c #E7F9E5",
"j@	c #E4F9E1",
"k@	c #606048",
"l@	c #7A7A66",
"m@	c #8B8B79",
"n@	c #9FD8A3",
"o@	c #138737",
"p@	c #007933",
"q@	c #007230",
"r@	c #188929",
"s@	c #1C7D23",
"t@	c #1B7721",
"u@	c #145919",
"v@	c #167622",
"w@	c #00913D",
"x@	c #06943E",
"y@	c #1FA041",
"z@	c #34AB44",
"A@	c #414124",
"B@	c #272707",
"C@	c #EEEEEC",
"D@	c #A6EB9F",
"E@	c #2F2F10",
"F@	c #CCCCC5",
"G@	c #F9F9F9",
"H@	c #B9B9AE",
"I@	c #CDF2C9",
"J@	c #60C263",
"K@	c #41B449",
"L@	c #2C9B3F",
"M@	c #39AC42",
"N@	c #22922D",
"O@	c #1A8527",
"P@	c #1C8024",
"Q@	c #1C7F24",
"R@	c #135C1A",
"S@	c #058C38",
"T@	c #8C8C7B",
"U@	c #A9A99C",
"V@	c #C8F2C3",
"W@	c #8D8D7C",
"X@	c #39391C",
"Y@	c #898977",
"Z@	c #E8E8E5",
"`@	c #FDFEFD",
" #	c #F1FBF0",
".#	c #CFF4CB",
"+#	c #88DB83",
"@#	c #5DC361",
"##	c #3EB045",
"$#	c #1D8F3A",
"%#	c #0D7A2F",
"&#	c #1F9127",
"*#	c #1F9027",
"=#	c #0A752B",
"-#	c #D7D7D1",
";#	c #262605",
">#	c #272706",
",#	c #7C7C68",
"'#	c #333314",
")#	c #BDF0B7",
"!#	c #9DE896",
"~#	c #89DC85",
"{#	c #45B54C",
"]#	c #3EB147",
"^#	c #44B14D",
"/#	c #36A73F",
"(#	c #33A53C",
"_#	c #37A73F",
":#	c #06792F",
"<#	c #EFEFED",
"[#	c #5A5A41",
"}#	c #DEDED9",
"|#	c #5C5C43",
"1#	c #E8E9E5",
"2#	c #878775",
"3#	c #3F3F22",
"4#	c #848471",
"5#	c #9EE996",
"6#	c #8BDD86",
"7#	c #4CB951",
"8#	c #41B349",
"9#	c #39AB4C",
"0#	c #46AD55",
"a#	c #54B35B",
"b#	c #58B65F",
"c#	c #55B35C",
"d#	c #135317",
"e#	c #12631E",
"f#	c #028537",
"g#	c #008036",
"h#	c #F2F2F1",
"i#	c #A3A395",
"j#	c #56563C",
"k#	c #A5A598",
"l#	c #F1F1F0",
"m#	c #F0FBEF",
"n#	c #DFDFDB",
"o#	c #919180",
"p#	c #333315",
"q#	c #8BDE86",
"r#	c #5FC562",
"s#	c #44B34D",
"t#	c #0E853A",
"u#	c #097734",
"v#	c #6EBF74",
"w#	c #71C177",
"x#	c #16611B",
"y#	c #147A27",
"z#	c #007F36",
"A#	c #007430",
"B#	c #178737",
"C#	c #E9E9E7",
"D#	c #ECECEA",
"E#	c #F5F5F4",
"F#	c #404023",
"G#	c #B3B3A7",
"H#	c #C5C5BC",
"I#	c #303011",
"J#	c #E7F6E8",
"K#	c #43B54A",
"L#	c #38AC45",
"M#	c #44B54C",
"N#	c #4AB552",
"O#	c #3A9D4E",
"P#	c #52A962",
"Q#	c #7BC580",
"R#	c #16621C",
"S#	c #1B7B22",
"T#	c #17852D",
"U#	c #29983E",
"V#	c #3DB045",
"W#	c #5D5D45",
"X#	c #FEFEFE",
"Y#	c #F8F8F8",
"Z#	c #969686",
"`#	c #E3F3E4",
" $	c #22A141",
".$	c #03943F",
"+$	c #008E3C",
"@$	c #269B41",
"#$	c #4DB054",
"$$	c #6BBD71",
"%$	c #7FC585",
"&$	c #135718",
"*$	c #1B7A22",
"=$	c #27972E",
"-$	c #3EB247",
";$	c #FDFDFD",
">$	c #DBF7D8",
",$	c #D7F6D3",
"'$	c #434326",
")$	c #292909",
"!$	c #80806D",
"~$	c #89D08E",
"{$	c #10963E",
"]$	c #007A35",
"^$	c #57AF62",
"/$	c #79C480",
"($	c #80C785",
"_$	c #159335",
":$	c #06913E",
"<$	c #2AA441",
"[$	c #B0EDAA",
"}$	c #AEEDA7",
"|$	c #B9EFB3",
"1$	c #E5F8E4",
"2$	c #F3FAF3",
"3$	c #F2FAF3",
"4$	c #D1EDD3",
"5$	c #7FCC84",
"6$	c #0B8437",
"7$	c #008538",
"8$	c #008037",
"9$	c #107B39",
"0$	c #75C27B",
"a$	c #82C786",
"b$	c #14661E",
"c$	c #068B37",
"d$	c #008F3C",
"e$	c #1F9A3F",
"f$	c #3DB146",
"g$	c #98E591",
"h$	c #73CF72",
"i$	c #39B046",
"j$	c #35AE45",
"k$	c #2BA743",
"l$	c #2AA241",
"m$	c #3AAC43",
"n$	c #23903C",
"o$	c #157C39",
"p$	c #6BBA75",
"q$	c #82C887",
"r$	c #84C88A",
"s$	c #0A762B",
"t$	c #008137",
"u$	c #299A3E",
"v$	c #3EAF46",
"w$	c #9EE896",
"x$	c #79D377",
"y$	c #4FBB54",
"z$	c #27A442",
"A$	c #04963F",
"B$	c #038A3A",
"C$	c #2CA039",
"D$	c #3FAA47",
"E$	c #5AB661",
"F$	c #75C27A",
"G$	c #85C98A",
"H$	c #0F6D25",
"I$	c #047D35",
"J$	c #36A843",
"K$	c #8CDE87",
"L$	c #50BC55",
"M$	c #40B347",
"N$	c #189C40",
"O$	c #1D933E",
"P$	c #5BB661",
"Q$	c #82C888",
"R$	c #86CA8B",
"S$	c #13661E",
"T$	c #008439",
"U$	c #0F8135",
"V$	c #97E490",
"W$	c #64C766",
"X$	c #38AF45",
"Y$	c #31A944",
"Z$	c #0E963E",
"`$	c #087E37",
" %	c #6BBB74",
".%	c #84C989",
"+%	c #88CA8D",
"@%	c #0A7129",
"#%	c #08792E",
"$%	c #0A7F32",
"%%	c #0D7E34",
"&%	c #2C9C3E",
"*%	c #98E592",
"=%	c #71CE70",
"-%	c #47B64D",
";%	c #24A543",
">%	c #079740",
",%	c #209D40",
"'%	c #0A8638",
")%	c #00893B",
"!%	c #007B34",
"~%	c #359352",
"{%	c #80C587",
"]%	c #8ACB8D",
"^%	c #1B7F24",
"/%	c #21922B",
"(%	c #39AB42",
"_%	c #7ED67B",
":%	c #49B850",
"<%	c #39AF45",
"[%	c #0B973F",
"}%	c #14933C",
"|%	c #2FA738",
"1%	c #269E32",
"2%	c #1D9038",
"3%	c #027C35",
"4%	c #318F4F",
"5%	c #87CA8C",
"6%	c #8ACC8F",
"7%	c #186D1F",
"8%	c #1F8E27",
"9%	c #2EA43C",
"0%	c #93E28D",
"a%	c #5AC15D",
"b%	c #38AE45",
"c%	c #04933E",
"d%	c #00943E",
"e%	c #198C32",
"f%	c #3CA944",
"g%	c #52B359",
"h%	c #64B96C",
"i%	c #4A9E5E",
"j%	c #88CB8D",
"k%	c #8BCC8F",
"l%	c #186C1E",
"m%	c #1A7922",
"n%	c #138C2E",
"o%	c #02923D",
"p%	c #11953D",
"q%	c #33A743",
"r%	c #92E28D",
"s%	c #68C969",
"t%	c #3BB046",
"u%	c #0F973F",
"v%	c #037A33",
"w%	c #3BA447",
"x%	c #5BB662",
"y%	c #72C078",
"z%	c #167724",
"A%	c #008C3B",
"B%	c #3DB046",
"C%	c #71CF70",
"D%	c #149940",
"E%	c #23A241",
"F%	c #3AAF46",
"G%	c #1A9A40",
"H%	c #008F3E",
"I%	c #1C863D",
"J%	c #68BD6E",
"K%	c #7BC581",
"L%	c #8BCC90",
"M%	c #187321",
"N%	c #058535",
"O%	c #21933B",
"P%	c #9EE997",
"Q%	c #8ADD85",
"R%	c #4EBA53",
"S%	c #1CA142",
"T%	c #0B8738",
"U%	c #36AB3F",
"V%	c #1A9033",
"W%	c #047C33",
"X%	c #047F36",
"Y%	c #64B46E",
"Z%	c #8ACB8F",
"`%	c #8DCC92",
" &	c #187220",
".&	c #107928",
"+&	c #0A7C2E",
"@&	c #0C7F2E",
"#&	c #2C9F3A",
"$&	c #5EC461",
"%&	c #61C563",
"&&	c #28A543",
"*&	c #007D35",
"=&	c #2DA036",
"-&	c #48AB51",
";&	c #53AE5E",
">&	c #5AAF68",
",&	c #5DAD6C",
"'&	c #89CB8E",
")&	c #8CCC91",
"!&	c #1E8727",
"~&	c #21952B",
"{&	c #32A83A",
"]&	c #0C8D3B",
"^&	c #50B257",
"/&	c #61BA68",
"(&	c #72C178",
"_&	c #7FC684",
":&	c #87CB8C",
"<&	c #8BCD90",
"[&	c #8DCD92",
"}&	c #1B7822",
"|&	c #1C8325",
"1&	c #1E902A",
"2&	c #32A73A",
"3&	c #37AE45",
"4&	c #199C40",
"5&	c #30A843",
"6&	c #3BAF45",
"7&	c #33A742",
"8&	c #018A3B",
"9&	c #008338",
"0&	c #057633",
"a&	c #74C279",
"b&	c #8BCB90",
"c&	c #157E29",
"d&	c #027E35",
"e&	c #198B32",
"f&	c #40B448",
"g&	c #35AB46",
"h&	c #0A9740",
"i&	c #15893A",
"j&	c #3EAC45",
"k&	c #3FAB47",
"l&	c #48AE4F",
"m&	c #2C9847",
"n&	c #007833",
"o&	c #12813C",
"p&	c #30914E",
"q&	c #55A667",
"r&	c #197F25",
"s&	c #09772C",
"t&	c #198B30",
"u&	c #4AB751",
"v&	c #4AB555",
"w&	c #53BB5A",
"x&	c #40AC52",
"y&	c #16833B",
"z&	c #5EB864",
"A&	c #67BC6D",
"B&	c #6FC074",
"C&	c #71BF78",
"D&	c #6AB875",
"E&	c #7AC282",
"F&	c #86C98B",
"G&	c #1E8625",
"H&	c #34A63B",
"I&	c #3BA34E",
"J&	c #047332",
"K&	c #53B05F",
"L&	c #63BC69",
"M&	c #1D8C42",
"N&	c #027D36",
"O&	c #067836",
"P&	c #379251",
"Q&	c #7FC784",
"R&	c #82C988",
"S&	c #85CA8B",
"T&	c #8BCB8E",
"U&	c #299F32",
"V&	c #46AE4D",
"W&	c #59B362",
"X&	c #4CA45E",
"Y&	c #74C17A",
"Z&	c #78C47E",
"`&	c #71BC79",
" *	c #5BAC6B",
".*	c #6FBA7A",
"+*	c #81C787",
"@*	c #84C98A",
"#*	c #54B35A",
"$*	c #6ABE70",
"%*	c #77C37D",
"&*	c #7DC582",
"**	c #81C786",
"            . . . + . . . .                                                                     ",
"          . . @ # $ % & * = - ; . . @ .                                                         ",
"          . ; > , ' ) ! ~ { ] ^ / ( _ ; @ @ .                                                   ",
"          : < [ } | 1 2 3 4 5 6 7 8 9 0 a b c d @                                               ",
"        @ & e f g h i i j k l m n o p 4 4 q r s t u ;                                           ",
"        ; v w x y i i i z A B C i D E F F 4 G H I J K L -                                       ",
"      M N O P Q i i R S i T T T i U V F F W X Y Z `  ...+.@.-                                   ",
"      #.$.4 %.&.i i *.=.-.;.i h i i >.V ,.G '.).!.~.{.].^./.(.L L                               ",
"      _.:.,.<.[.i i }.|.1.2.3.i i i 4.5.6.7.8.9.0.a.b.4 q c.d.e.K f.                            ",
"    . g.h.i.j.k.i i }.|.|.l.m.n.S i i o.p.i i i q.4 F F F r.s.t.u.v./                           ",
"    . L w.x.y.i i i }.|.|.|.|.|.z.A.B.i i i i i C.4 F F 4 D.E.F.G.H.I.J.                        ",
"    @ K.L.M.h i i i }.|.|.|.|.|.|.N.O.P.i i i i Q.V R.4 :.S.T.U.V.W.X.Y.Z.                      ",
"    `. +.+++h i i i }.|.|.|.|.|.|.|.|.N.@+#+h i $+%+&+l *+=+i -+;+F F >+,+'+                    ",
"  )+!+~+{+]+^+i i i }.|.|.|.|.|.|.|.|.|.l./+(+_+i i :+<+[+i i }+|+F F F 1+2+3+e.                ",
"  4+5+W F V 6+i i i }.|.|.|.|.|.|.|.|.|.|.|.7+8+9+i i 4.T T i 0+a+b+b+$.c+d+e+f+g+              ",
"  h+i+F F q j+T i i }.|.|.|.|.|.|.|.|.|.|.|.|.|.|.k+l+m+i i i n+o+p+,.1+q+r+s+t+u+3+            ",
"  v+w+F F x+y+z+i i A+|.|.|.|.|.|.|.|.|.|.|.|.|.|.l.m.B+C+i i i D+E+F+G+[+H+I+J+K+L+f+          ",
"  M+G w+N+O+P+Q+i i R+|.|.|.|.|.|.|.|.|.|.|.|.|.|.|.|.|.S+T+i i i T U+p.;.V+W+X+Y+Z+`+          ",
"   @.@+@@@#@i $@$@$@$@$@$@$@$@$@$@$@$@%@&@|.|.*@$@$@$@$@=@-@;@>@,@'@)@i i i !@~@F {@]@^@        ",
"  L /@(@_@:@i $@<@<@<@<@<@<@<@$@<@<@<@[@}@|.|@1@<@<@<@$@2@3@4@5@6@7@8@9@T i i 0@x+a@h.b@c@      ",
"@ d@e@f@g@i i $@<@<@<@<@<@<@<@$@<@<@<@h@i@|.j@k@<@<@<@$@l@<@<@<@<@<@m@n@i i i o@p@q@r@s+s@t@    ",
"@ u@v@w@x@y@z@$@<@<@$@$@$@$@$@$@<@<@A@B@C@D@C@B@A@<@<@$@E@<@F@G@H@<@4@I@J@K@i i ^+L@M@N@O@P@Q@  ",
"; R@S@F F F k $@<@<@$@$@$@$@$@$@<@<@T@<@U@V@U@<@W@<@<@$@X@<@Y@Z@`@ # #.#|.+#@###i i h $#%#&#*#  ",
"d =#R.F F F V $@<@<@<@<@<@<@$@$@<@<@-#;#k@;@k@>#-#<@<@$@,#<@<@<@'#3@8@)#|.|.!#~#{#i m+]#^#/#(#_#",
"* :#w+F F F V $@<@<@<@<@<@<@$@$@<@<@<#[#B@}#B@|#C@<@<@$@1#2#3#<@<@<@4# #|.5#6#7#i m+8#9#0#a#b#c#",
"d#e#f#q 5 :.g#$@<@<@$@$@$@$@$@$@<@<@h#i#<@j#<@k#l#<@<@$@m#m#m#n#o#<@p# #q#r#i i i m+s#t#u#v#w#  ",
"_ x#y#z#@@A#B#$@<@<@$@|.|.|.|.$@<@<@2@C#;#<@>#D#E#<@<@$@F#<@G#G@H#<@I#J#K#i i i L#M#N#O#P#Q#    ",
"L R#S#T#U#V#i $@<@<@$@|.|.|.|.$@<@<@G@$@[#<@W#X#Y#<@<@$@Z#<@<@<@<@<@,#`#h i  $.$+$@$#$$$Q#%$    ",
"&$R#*$=$-$T i $@<@<@$@|.|.|.|.$@<@<@;$>$i#<@[@,$;$<@<@$@;$Z#'$)$X@!$2@~$i i {$F x+]$^$/$($      ",
"  v.t+_$:$<$i $@$@$@$@|.|.|.|.$@$@$@$@[$$@$@$@}$$@$@$@$@|$1$,@2$3$4$5$i i i 6$7$8$9$0$a$        ",
"  b$c$4 F d$e$f$i y T+|.|.|.|.|.|.|.|.|.|.|.|.|.|.|.|.g$h$;.i i f$i$j$k$l$m+m$n$o$p$q$r$        ",
"  s$|+F F R.t$u$i v$T+|.|.|.|.|.|.|.|.|.|.|.|.|.|.w$x$y$i i T i z$A$4 R.B$C$D$E$F$q$G$          ",
"  H$~@b+F ~@I$J$i v$(+|.|.|.|.|.|.|.|.|.|.|.|.|.K$L$M$T T i i i N$F F F x+O$P$F$Q$R$            ",
"  S$f#:.{@T$U$i i i A+|.|.|.|.|.|.|.|.|.|.|.V$W$i i i X$Y$T i i Z$F F 4 :.`$ %.%+%              ",
"  '+@%#%$%%%&%i i i A+|.|.|.|.|.|.|.|.|.*%=%-%i i f$;%>%~@,%i m+'%)%x+,.!%~%{%]%                ",
"    /@^%/%(%T i i i A+|.|.|.|.|.|.|.|._%:%h i i <%[%F F F x+}%|%1%2%3%*+4%5%6%                  ",
"    7%t.8%9%4.i i i A+|.|.|.|.|.N.0%a%i i T i i b%c%4 F F d%O+e%f%g%h%i%j%k%                    ",
"    l%m%n%o%p%q%T i A+|.|.|.|.r%s%h i i i i i i t%u%W W F >+v%w%x%y%Q$6%                        ",
"    7%z%d$F A%P B%i A+|.|.|.C%S T i i f$D%E%F%T T G%H%x+~@T$I%J%K%5%L%                          ",
"      M%N%p+z#O%i i }.P%Q%R%i i i i T S%F 4 N+T%U%V%W%I$X%q@Y%Q$Z%`%                            ",
"       &.&+&@&#&i i $&%&i i i i i i &&R.F F R.*&=&f%-&;&>&,&'&)&                                ",
"        m%!&~&{&i i i T i i i i i i ]&q 4 F w+!%^&/&(&_&:&<&[&                                  ",
"        }&|&1&2&i i i i 3&4&5&6&m+h 7&8&x+:.9&0&a&($5%b&[&                                      ",
"        t+c&d&e&T f&K@g&h&F V i&j&k&l&m&n&o&p&q&:&L%`%                                          ",
"          r&s&t&u&v&w&x&V w+a@y&z&A&B&C&D&E&F&k%                                                ",
"          G&V.H&I&J&K&L&M&N&O&P&K%Q&R&S&+%T&                                                    ",
"            U&V&W&X&Y&Z&`& *.*+*@*F&                                                            ",
"              #*$*%*&*Q&**                                                                      "};
