/* XPM */
static const char * const fmslogo_40x40_xpm[] = {
"40 40 578 2",
"  	c None",
". 	c #114F16",
"+ 	c #104F16",
"@ 	c #135217",
"# 	c #067630",
"$ 	c #05692A",
"% 	c #135818",
"& 	c #125919",
"* 	c #0F601F",
"= 	c #125117",
"- 	c #124F16",
"; 	c #0A6323",
"> 	c #28782D",
", 	c #1A8034",
"' 	c #248637",
") 	c #319038",
"! 	c #178C37",
"~ 	c #009540",
"{ 	c #008639",
"] 	c #15691E",
"^ 	c #17641C",
"/ 	c #135D1A",
"( 	c #0D6923",
"_ 	c #105719",
": 	c #125016",
"< 	c #135017",
"[ 	c #066929",
"} 	c #369D3E",
"| 	c #3FB046",
"1 	c #3FB247",
"2 	c #3FB147",
"3 	c #038738",
"4 	c #00913E",
"5 	c #008238",
"6 	c #218F32",
"7 	c #208C27",
"8 	c #15872B",
"9 	c #009440",
"0 	c #028537",
"a 	c #115F1E",
"b 	c #135317",
"c 	c #135718",
"d 	c #27832E",
"e 	c #3CAC44",
"f 	c #3FB347",
"g 	c #34A943",
"h 	c #007330",
"i 	c #188838",
"j 	c #3AAC44",
"k 	c #3BAF42",
"l 	c #03943E",
"m 	c #009640",
"n 	c #009740",
"o 	c #008E3C",
"p 	c #127A28",
"q 	c #186D1D",
"r 	c #155F1A",
"s 	c #135618",
"t 	c #135116",
"u 	c #0A6A26",
"v 	c #068535",
"w 	c #168B39",
"x 	c #3EB045",
"y 	c #40B348",
"z 	c #4BB951",
"A 	c #3EB246",
"B 	c #2CA241",
"C 	c #008C3C",
"D 	c #14892D",
"E 	c #208F29",
"F 	c #1E8325",
"G 	c #197320",
"H 	c #15631C",
"I 	c #125618",
"J 	c #125217",
"K 	c #124E15",
"L 	c #00913D",
"M 	c #038638",
"N 	c #3CB046",
"O 	c #45B64C",
"P 	c #A0EA98",
"Q 	c #73CD72",
"R 	c #259E40",
"S 	c #008A3B",
"T 	c #008338",
"U 	c #007432",
"V 	c #188C2E",
"W 	c #1F9A2C",
"X 	c #0A9337",
"Y 	c #04923B",
"Z 	c #01903D",
"` 	c #0B782C",
" .	c #16601B",
"..	c #145719",
"+.	c #0F5319",
"@.	c #017C33",
"#.	c #008439",
"$.	c #057732",
"%.	c #3BAE45",
"&.	c #A1EB99",
"*.	c #93E08C",
"=.	c #61C463",
"-.	c #198B38",
";.	c #23943C",
">.	c #3BAD45",
",.	c #3FB348",
"'.	c #23A13A",
").	c #00953F",
"!.	c #008839",
"~.	c #1A7C23",
"{.	c #186C1E",
"].	c #165F1B",
"^.	c #135919",
"/.	c #115016",
"(.	c #127931",
"_.	c #3FB146",
":.	c #91DF8C",
"<.	c #4AB750",
"[.	c #1DA042",
"}.	c #008E3D",
"|.	c #0D832E",
"1.	c #1F8826",
"2.	c #1B7721",
"3.	c #17661D",
"4.	c #145C1A",
"5.	c #196D1F",
"6.	c #38A33F",
"7.	c #9EE896",
"8.	c #80D67D",
"9.	c #40B248",
"0.	c #098839",
"a.	c #00923E",
"b.	c #007D35",
"c.	c #11842D",
"d.	c #22992A",
"e.	c #1B8F2A",
"f.	c #088A35",
"g.	c #0E7628",
"h.	c #16611B",
"i.	c #1D7924",
"j.	c #3CAA43",
"k.	c #A1EA98",
"l.	c #65C667",
"m.	c #42B449",
"n.	c #36A943",
"o.	c #0E8838",
"p.	c #008539",
"q.	c #007A35",
"r.	c #22923B",
"s.	c #149739",
"t.	c #0D792A",
"u.	c #15641B",
"v.	c #058334",
"w.	c #05913C",
"x.	c #01883A",
"y.	c #39AC44",
"z.	c #98E692",
"A.	c #56BD59",
"B.	c #31A441",
"C.	c #2A9A3E",
"D.	c #10943E",
"E.	c #008237",
"F.	c #157323",
"G.	c #17671D",
"H.	c #0C6121",
"I.	c #1B943C",
"J.	c #84D880",
"K.	c #50BA54",
"L.	c #27A141",
"M.	c #00903E",
"N.	c #00943F",
"O.	c #00903D",
"P.	c #047A31",
"Q.	c #1E8827",
"R.	c #1A7822",
"S.	c #186A1E",
"T.	c #07772E",
"U.	c #088538",
"V.	c #3DB146",
"W.	c #77D075",
"X.	c #41B449",
"Y.	c #3AAE45",
"Z.	c #037834",
"`.	c #027E35",
" +	c #007933",
".+	c #1D8D37",
"++	c #21972A",
"@+	c #1F8B27",
"#+	c #1B7A22",
"$+	c #176D1F",
"%+	c #04752F",
"&+	c #008D3C",
"*+	c #00933F",
"=+	c #008538",
"-+	c #0D7D34",
";+	c #3EB146",
">+	c #97E491",
",+	c #6CCA6C",
"'+	c #35A742",
")+	c #37AC40",
"!+	c #1F962B",
"~+	c #0F8E32",
"{+	c #098331",
"]+	c #19701F",
"^+	c #145819",
"/+	c #0C782A",
"(+	c #017C34",
"_+	c #107F35",
":+	c #AFDFB2",
"<+	c #E9F6EA",
"[+	c #FFFFFF",
"}+	c #F2FCF1",
"|+	c #DCF7D9",
"1+	c #F8FDF8",
"2+	c #E8FAE6",
"3+	c #E6F9E3",
"4+	c #E9FAE7",
"5+	c #C8F3C4",
"6+	c #F6FDF5",
"7+	c #F6FCF5",
"8+	c #F1F9F1",
"9+	c #EFF8F0",
"0+	c #B5E1B8",
"a+	c #49B751",
"b+	c #1A9C3F",
"c+	c #00963F",
"d+	c #0C782B",
"e+	c #187120",
"f+	c #155B1A",
"g+	c #1B7C22",
"h+	c #2DA038",
"i+	c #C7E8C9",
"j+	c #252504",
"k+	c #C6CEBE",
"l+	c #A3EA9B",
"m+	c #C7CFBF",
"n+	c #D5D5CF",
"o+	c #58583F",
"p+	c #2B2B0B",
"q+	c #313112",
"r+	c #5A5B41",
"s+	c #C6CFC1",
"t+	c #A3DAA6",
"u+	c #229D3F",
"v+	c #0B782A",
"w+	c #1C7C23",
"x+	c #1A7521",
"y+	c #155E1B",
"z+	c #14842A",
"A+	c #179A3A",
"B+	c #33AC45",
"C+	c #919681",
"D+	c #B7EFB1",
"E+	c #909581",
"F+	c #454529",
"G+	c #CCCCC4",
"H+	c #C0C5B8",
"I+	c #424325",
"J+	c #BCE7BB",
"K+	c #43B44A",
"L+	c #37AA44",
"M+	c #21943C",
"N+	c #107E34",
"O+	c #299C32",
"P+	c #1D8925",
"Q+	c #1C7D23",
"R+	c #1C7B23",
"S+	c #16611C",
"T+	c #02923C",
"U+	c #03883A",
"V+	c #C5E7C9",
"W+	c #FAFDF9",
"X+	c #EAFAE9",
"Y+	c #DDF7DA",
"Z+	c #E6F9E4",
"`+	c #444427",
" @	c #5B5E43",
".@	c #5A5D43",
"+@	c #444428",
"@@	c #333315",
"#@	c #D2D2CC",
"$@	c #FCFEFC",
"%@	c #D1F4CD",
"&@	c #9DE896",
"*@	c #59BE5C",
"=@	c #077C33",
"-@	c #168329",
";@	c #1E8926",
">@	c #058534",
",@	c #00893B",
"'@	c #C4E6C8",
")@	c #EBFAE9",
"!@	c #7F7F6B",
"~@	c #2C2C0C",
"{@	c #F1F1F0",
"]@	c #7F7F6C",
"^@	c #9B9B8C",
"/@	c #7E7E6A",
"(@	c #D8D8D3",
"_@	c #CBF3C7",
":@	c #93E18D",
"<@	c #4DB953",
"[@	c #37A744",
"}@	c #39A843",
"|@	c #30A339",
"1@	c #34A53C",
"2@	c #115518",
"3@	c #028337",
"4@	c #00893A",
"5@	c #BCE2C0",
"6@	c #BABAB0",
"7@	c #90907F",
"8@	c #BBBBB1",
"9@	c #FEFEFE",
"0@	c #FAFEFA",
"a@	c #CECEC7",
"b@	c #757561",
"c@	c #2D2D0D",
"d@	c #9F9F91",
"e@	c #F7FDF6",
"f@	c #95E38E",
"g@	c #62C664",
"h@	c #41B34A",
"i@	c #2EA149",
"j@	c #4EAF59",
"k@	c #5BB763",
"l@	c #58B55F",
"m@	c #135517",
"n@	c #15691F",
"o@	c #008F3D",
"p@	c #00883A",
"q@	c #007733",
"r@	c #BBE1C0",
"s@	c #E7F9E5",
"t@	c #F2F2F1",
"u@	c #272707",
"v@	c #2F2F10",
"w@	c #F3F3F2",
"x@	c #F5FCF4",
"y@	c #DADAD5",
"z@	c #6ECD6E",
"A@	c #41B348",
"B@	c #42B04E",
"C@	c #409B56",
"D@	c #76C37B",
"E@	c #135518",
"F@	c #18691D",
"G@	c #12802A",
"H@	c #0B7E35",
"I@	c #1E8F3A",
"J@	c #31A341",
"K@	c #BEE5C1",
"L@	c #56563D",
"M@	c #57573E",
"N@	c #484A2C",
"O@	c #BFC4B6",
"P@	c #CACAC2",
"Q@	c #F0F9F1",
"R@	c #2AA744",
"S@	c #1C9F42",
"T@	c #34A846",
"U@	c #4BB253",
"V@	c #56AD63",
"W@	c #7BC581",
"X@	c #135719",
"Y@	c #18681E",
"Z@	c #1E8725",
"`@	c #BFE5C1",
" #	c #919181",
".#	c #929282",
"+#	c #D0D6CA",
"@#	c #5A5C41",
"##	c #2E2F10",
"$#	c #D3D3CD",
"%#	c #BBE4BE",
"&#	c #02943E",
"*#	c #028137",
"=#	c #62BA68",
"-#	c #7AC480",
";#	c #80C785",
">#	c #145919",
",#	c #18691E",
"'#	c #1B8727",
")#	c #0E9740",
"!#	c #2AA341",
"~#	c #DCF1DD",
"{#	c #F4FAF5",
"]#	c #F0FBEF",
"^#	c #E4F9E2",
"/#	c #EEFBED",
"(#	c #CAF3C6",
"_#	c #F4FCF3",
":#	c #EEF8EF",
"<#	c #A8DCAC",
"[#	c #45B54C",
"}#	c #008137",
"|#	c #00863A",
"1#	c #077735",
"2#	c #74C07B",
"3#	c #82C786",
"4#	c #107327",
"5#	c #1E993E",
"6#	c #44B24B",
"7#	c #9BE794",
"8#	c #7BD57A",
"9#	c #37AE45",
"0#	c #30AB45",
"a#	c #25A442",
"b#	c #29A141",
"c#	c #3DB145",
"d#	c #32A140",
"e#	c #1F863F",
"f#	c #65B670",
"g#	c #83C888",
"h#	c #048435",
"i#	c #038036",
"j#	c #3CB045",
"k#	c #3EB046",
"l#	c #86DB83",
"m#	c #46B64D",
"n#	c #0B9840",
"o#	c #048C3A",
"p#	c #35A53E",
"q#	c #55B45D",
"r#	c #75C27A",
"s#	c #0D7327",
"t#	c #0E8236",
"u#	c #8DDF89",
"v#	c #5BC25E",
"w#	c #03943F",
"x#	c #299346",
"y#	c #75C27B",
"z#	c #85C98A",
"A#	c #16651D",
"B#	c #017B33",
"C#	c #007632",
"D#	c #28973D",
"E#	c #9EE996",
"F#	c #68C969",
"G#	c #28A743",
"H#	c #2DA743",
"I#	c #007F37",
"J#	c #349150",
"K#	c #87CA8B",
"L#	c #89CA8E",
"M#	c #197421",
"N#	c #1D8A28",
"O#	c #34A53F",
"P#	c #71CF71",
"Q#	c #36AD45",
"R#	c #0B9940",
"S#	c #209B3E",
"T#	c #2BA334",
"U#	c #1D9334",
"V#	c #067F36",
"W#	c #339050",
"X#	c #88CA8D",
"Y#	c #17681D",
"Z#	c #1A7320",
"`#	c #1F8926",
" $	c #279F39",
".$	c #3BB046",
"+$	c #8BDD86",
"@$	c #4FBB54",
"#$	c #33AB44",
"$$	c #007E35",
"%$	c #2EA13A",
"&$	c #4AAF51",
"*$	c #66BB6D",
"=$	c #56A767",
"-$	c #89CB8E",
";$	c #19711F",
">$	c #12872D",
",$	c #058D3B",
"'$	c #35A943",
")$	c #99E692",
"!$	c #53BD57",
"~$	c #3AAF45",
"{$	c #02923E",
"]$	c #0C7F35",
"^$	c #55B35B",
"/$	c #71C077",
"($	c #84C989",
"_$	c #8ACC8F",
":$	c #197020",
"<$	c #058636",
"[$	c #008438",
"}$	c #2FA140",
"|$	c #9CE794",
"1$	c #6CCB6C",
"2$	c #20A342",
"3$	c #179D41",
"4$	c #28A041",
"5$	c #038136",
"6$	c #007C35",
"7$	c #45A157",
"8$	c #7CC682",
"9$	c #88CB8D",
"0$	c #8CCD91",
"a$	c #197120",
"b$	c #127826",
"c$	c #03752F",
"d$	c #3BAF44",
"e$	c #86DA82",
"f$	c #30AB44",
"g$	c #008036",
"h$	c #29A032",
"i$	c #32A13D",
"j$	c #389F49",
"k$	c #3C9C52",
"l$	c #379251",
"m$	c #85CA8A",
"n$	c #8CCC90",
"o$	c #1A7621",
"p$	c #1C8526",
"q$	c #20952A",
"r$	c #3DB245",
"s$	c #098D3C",
"t$	c #4EB155",
"u$	c #62BA69",
"v$	c #76C37C",
"w$	c #83C988",
"x$	c #8ACC90",
"y$	c #8DCD92",
"z$	c #1A7721",
"A$	c #1C8225",
"B$	c #1B902C",
"C$	c #3CAF44",
"D$	c #2EAA44",
"E$	c #169A40",
"F$	c #33A944",
"G$	c #3DB045",
"H$	c #2FA340",
"I$	c #047532",
"J$	c #78C37D",
"K$	c #84CA89",
"L$	c #8ACB8F",
"M$	c #8DCC92",
"N$	c #147C28",
"O$	c #007934",
"P$	c #269938",
"Q$	c #42B54A",
"R$	c #43B54A",
"S$	c #31A646",
"T$	c #3FA947",
"U$	c #4BB052",
"V$	c #57B55D",
"W$	c #2A9049",
"X$	c #0F7A39",
"Y$	c #50A664",
"Z$	c #7DC384",
"`$	c #1C8124",
" %	c #168629",
".%	c #34A63C",
"+%	c #319C4B",
"@%	c #4AAD57",
"#%	c #58B960",
"$%	c #028538",
"%%	c #037733",
"&%	c #6DBF73",
"*%	c #7CC681",
"=%	c #82C887",
"-%	c #8ACB8E",
";%	c #279D2F",
">%	c #4AB051",
",%	c #37964E",
"'%	c #65B86E",
")%	c #73C179",
"!%	c #56AB67",
"~%	c #439C5A",
"{%	c #69B675",
"]%	c #87CA8C",
"^%	c #3CA944",
"/%	c #5BB662",
"(%	c #71C177",
"_%	c #7CC580",
":%	c #7EC784",
"<%	c #81C786",
"          . . + . . . .                                                         ",
"        . . @ # $ % & * @ = - - .                                               ",
"        + ; > , ' ) ! ~ { ] ^ / ( _ : .                                         ",
"        < [ } | 1 2 3 4 5 6 7 8 ~ 9 0 a b -                                     ",
"      - c d e f f f g h i j k l m n o p q r s t                                 ",
"      u v w x f y z f f A f B C m m C D E F G H I J                             ",
"    K L ~ M N f O P Q f f f f R S T U V W X Y Z `  ...                          ",
"    +.@.#.$.%.f O P &.*.=.f f f -.;.>.,.'.m m ).!.~.{.].^.                      ",
"    /. .(._.f f O P P P &.:.<.f f f f f [.m m m }.|.1.2.3.4.                    ",
"    @ 5.6.f f f O P P P P P 7.8.9.f f f 0.4 m a.b.c.d.e.f.g.h.                  ",
"  . s i.j.f f f O P P P P P P k.7.l.m.f n.o.p.q.r.f s.~ m 4 t.u.                ",
"  /.v.w.x.y.f f O P P P P P P P P P z.A.f A B.C.f f D.m m m E.F.G.              ",
"  H.m m 4 I.f f O P P P P P P P P P P P J.K.f f A f L.M.N.O.P.Q.R.S.            ",
"  T.m m N.U.V.f O P P P P P P P P P P P P &.W.X.f f Y.Z.`. +.+++@+#+$+          ",
"  %+&+*+=+-+;+f O P P P P P P P P P P P P P P >+,+f f f %.'+V.)+!+~+{+]+        ",
"  ^+/+(+_+f :+<+[+[+[+}+|+1+[+[+2+P 3+[+[+[+4+5+6+7+8+9+0+a+f f b+c+}.d+e+      ",
"- f+g+h+V.f i+j+j+j+j+j+2+j+j+j+k+l+m+j+j+j+[+n+o+p+q+r+s+t+f f u+C #.v+w+x+    ",
"- y+z+A+B+f i+j+j+[+[+}+}+j+j+j+C+D+E+j+j+j+[+F+j+G+H+j+I+J+K+f L+M+N+O+P+Q+R+  ",
": S+T+m ~ U+V+j+j+W+X+Y+Z+j+j+`+ @Y+.@+@j+j+[+@@j+#@$@6+6+%@&@*@f f 1 1 =@-@;@  ",
"/.>@m m n ,@'@j+j+j+j+j+)@j+j+!@~@{@~@]@j+j+[+^@j+~@/@(@X+_@P P :@<@f y [@}@|@1@",
"2@3@~ m m 4@5@j+j+[+[+}+}+j+j+6@j+7@j+8@j+j+9@0@a@b@c@j+d@e@P f@g@f y h@i@j@k@l@",
"m@n@S o@p@q@r@j+j+s@P P }+j+j+t@u@v@u@w@j+j+0@s@x@x@y@j+v@e@z@m.f f A@B@U C@D@  ",
"E@F@G@H@I@J@K@j+j+}+P P }+j+j+[+L@j+M@[+j+j+[+N@j+O@P@j+F+Q@f f R@S@T@U@V@W@    ",
"X@Y@Z@2 A f `@j+j+}+P P }+j+j+[+ #j+.#[+j+j+[++#@###p+L@$#%#f f &#9 *#=#-#;#    ",
">#,#'#)#!#f `@~#{#X+P P s@}+}+4+]#}+}+^#/#}+}+(#_#Q@:#<+<#[#f f }#|#1#2#3#      ",
"  4#N.m O.5#A 1 6#P P P P P P P P P P P P P 7#8#A f f 9#0#a#b#c#d#e#f#g#        ",
"  h#m m *+i#j#k#6#P P P P P P P P P P P P l#m#A A f f n#m m o#p#q#r#g#          ",
"  s#4 9 &+t#A 1 [#P P P P P P P P P P u#v#f f N f f f w#m m o@x#y#z#            ",
"  A# +B#C#D#f f O P P P P P P P P E#F#f f A G#o@H#f V.S N.*+I#J#K#L#            ",
"  G.M#N#O#;+f f O P P P P P P P P#O f f Q#R#m m 4 S#T#U#V#q.W#X#                ",
"  Y#Z#`# $.$f f O P P P P P +$@$f f f f #$9 ~ m N.$$%$&$*$=$-$                  ",
"    ;$>$).,$'$f O P P P )$!$1 f f f f f ~${$c+m }.]$^$/$($_$                    ",
"    :$<$*+[$}$f O P |$1$A@f f f 2$w#3$4$c#5$#.{ 6$7$8$9$0$                      ",
"    a$b$ +c$d$f O e$1 f f f f f$~ m m g$h$i$j$k$l$m$n$                          ",
"      o$p$q$r$f f A f f f f f s$N.m ~ $$t$u$v$w$x$y$                            ",
"      z$A$B$C$f f f D$E$F$y G$H$C o [$I$J$K$L$M$                                ",
"        N$O$P$Q$R$S$*+m g$T$U$V$W$X$Y$Z$_$M$                                    ",
"        `$ %.%+%@%#%$%p.%%&%r#*%=%K#-%n$                                        ",
"          ;%>%,%'%)%!%~%{%g#z#]%                                                ",
"          ^%/%(%_%:%<%                                                          "};
