/* XPM */
static const char * const fmslogo_16x16_xpm[] = {
"16 16 130 2",
"  	c None",
". 	c #1A6420",
"+ 	c #156E28",
"@ 	c #146F26",
"# 	c #196821",
"$ 	c #267D2B",
"% 	c #114E15",
"& 	c #268A34",
"* 	c #3FB247",
"= 	c #048839",
"- 	c #249235",
"; 	c #059039",
"> 	c #0C8231",
", 	c #227727",
"' 	c #048436",
") 	c #269B3F",
"! 	c #61C663",
"~ 	c #50BB55",
"{ 	c #3FB347",
"] 	c #068D3B",
"^ 	c #0F8936",
"/ 	c #1A9732",
"( 	c #0F8633",
"_ 	c #1E6E23",
": 	c #187328",
"< 	c #3DB046",
"[ 	c #6FCE6F",
"} 	c #A0EA98",
"| 	c #80D77D",
"1 	c #43B44A",
"2 	c #03933E",
"3 	c #00903E",
"4 	c #1B8827",
"5 	c #136F22",
"6 	c #0D591C",
"7 	c #149038",
"8 	c #3EB246",
"9 	c #9FE997",
"0 	c #6FCD6F",
"a 	c #33A743",
"b 	c #25983E",
"c 	c #23A441",
"d 	c #009741",
"e 	c #0F7627",
"f 	c #08712A",
"g 	c #00943F",
"h 	c #2A9D3F",
"i 	c #6ECD6E",
"j 	c #9BE693",
"k 	c #5DC360",
"l 	c #36AB44",
"m 	c #16903C",
"n 	c #289C34",
"o 	c #167C25",
"p 	c #135918",
"q 	c #219236",
"r 	c #A1EA99",
"s 	c #8CDD87",
"t 	c #4CB952",
"u 	c #40B448",
"v 	c #00883A",
"w 	c #167A23",
"x 	c #0F6A22",
"y 	c #009540",
"z 	c #28A041",
"A 	c #7CD47A",
"B 	c #46B64D",
"C 	c #2D9D3B",
"D 	c #23932C",
"E 	c #0D6F25",
"F 	c #008C3C",
"G 	c #22983D",
"H 	c #9FEA98",
"I 	c #67C969",
"J 	c #40B348",
"K 	c #319C49",
"L 	c #6CBE72",
"M 	c #16661C",
"N 	c #2DA33E",
"O 	c #78D376",
"P 	c #35AB45",
"Q 	c #76C27C",
"R 	c #0B7A2C",
"S 	c #2A9F40",
"T 	c #6ECC6E",
"U 	c #8ADD86",
"V 	c #4AB950",
"W 	c #3AB046",
"X 	c #0C9A41",
"Y 	c #28A03F",
"Z 	c #65B66F",
"` 	c #126C22",
" .	c #0F8734",
"..	c #3AAD45",
"+.	c #98E591",
"@.	c #5AC25D",
"#.	c #30AB44",
"$.	c #129A40",
"%.	c #30A740",
"&.	c #249D3E",
"*.	c #67B971",
"=.	c #128E31",
"-.	c #2DA543",
";.	c #6CCC6C",
">.	c #3CB146",
",.	c #199E41",
"'.	c #03953E",
").	c #309A45",
"!.	c #7EC683",
"~.	c #117E29",
"{.	c #279B39",
"].	c #58C05B",
"^.	c #41B449",
"/.	c #0F9A41",
"(.	c #07923C",
"_.	c #3AA446",
":.	c #45A25C",
"<.	c #8BCB8F",
"[.	c #1B7B23",
"}.	c #1E9235",
"|.	c #45B64D",
"1.	c #06943F",
"2.	c #3EA84A",
"3.	c #3AA450",
"4.	c #5DB36B",
"5.	c #89CB8E",
"6.	c #44AC4B",
"7.	c #61B46D",
"8.	c #4AA360",
"9.	c #7DC484",
"    6.7.8.9.                    ",
"    . + @ # $                   ",
"  % & * = - ; > ,               ",
"  ' ) ! ~ { ] ^ / ( _           ",
"  : < [ } | 1 { 2 3 4 5         ",
"6 7 8 [ } } 9 0 a b c d e       ",
"f g h i } } } } j k l m n o     ",
"p q { [ } } } } } r s t u v w   ",
"x y z [ } } } } } } } } A B C D ",
"E F G [ } } } } } } } H I J K L ",
"M N { [ } } } } } } O { P v Q   ",
"R d S T } } } } U V W X Y Z     ",
"`  ...[ } } +.@.#.$.%.&.*.      ",
"  =.-.[ } ;.>.{ ,.'.).!.        ",
"  ~.{.].^.{ /.(._.:.<.          ",
"  [.}.|.1.2.3.4.5.              "};
