/* XPM */
static const char * const fmslogo_32x32_xpm[] = {
"32 32 419 2",
"  	c None",
". 	c #114F16",
"+ 	c #114E16",
"@ 	c #0F5218",
"# 	c #124F16",
"$ 	c #115016",
"% 	c #166A28",
"& 	c #007331",
"* 	c #1D6A22",
"= 	c #0F6E25",
"- 	c #087A2E",
"; 	c #105E1E",
"> 	c #125317",
", 	c #125016",
"' 	c #046C2C",
") 	c #39A040",
"! 	c #3CAA43",
"~ 	c #3DAB44",
"{ 	c #058F3C",
"] 	c #00933F",
"^ 	c #0E8031",
"/ 	c #1C7D22",
"( 	c #137A27",
"_ 	c #038B38",
": 	c #09752B",
"< 	c #10581B",
"[ 	c #125417",
"} 	c #2B8832",
"| 	c #3DAF45",
"1 	c #3FB347",
"2 	c #279D3F",
"3 	c #017732",
"4 	c #26953D",
"5 	c #38AD40",
"6 	c #03943D",
"7 	c #009640",
"8 	c #00943F",
"9 	c #0C792B",
"0 	c #16661C",
"a 	c #145919",
"b 	c #125217",
"c 	c #0D5D1F",
"d 	c #038A39",
"e 	c #188E3B",
"f 	c #5FC361",
"g 	c #3FB247",
"h 	c #3EB246",
"i 	c #36AB44",
"j 	c #008D3C",
"k 	c #00913E",
"l 	c #0D842F",
"m 	c #219129",
"n 	c #1D8124",
"o 	c #186D1F",
"p 	c #135B1A",
"q 	c #05762E",
"r 	c #017A34",
"s 	c #A1EB99",
"t 	c #8BDC86",
"u 	c #4AB750",
"v 	c #2CA241",
"w 	c #007C35",
"x 	c #0F8236",
"y 	c #289B39",
"z 	c #179830",
"A 	c #00943E",
"B 	c #038536",
"C 	c #18681D",
"D 	c #145A19",
"E 	c #0F591B",
"F 	c #047631",
"G 	c #2D9D3F",
"H 	c #A0EA98",
"I 	c #9FEA98",
"J 	c #79D277",
"K 	c #3BAE45",
"L 	c #179E41",
"M 	c #008F3D",
"N 	c #178728",
"O 	c #1B7822",
"P 	c #16641C",
"Q 	c #155D1A",
"R 	c #339B3A",
"S 	c #9DE896",
"T 	c #67C868",
"U 	c #078C3A",
"V 	c #009540",
"W 	c #008338",
"X 	c #13862C",
"Y 	c #219429",
"Z 	c #0D7528",
"` 	c #155F1B",
" .	c #176A1D",
"..	c #3BA842",
"+.	c #96E390",
"@.	c #56BE5A",
"#.	c #36A943",
"$.	c #0E8838",
"%.	c #23933B",
"&.	c #04933D",
"*.	c #0D792A",
"=.	c #16631C",
"-.	c #08722A",
";.	c #008D3D",
">.	c #34A943",
",.	c #86D982",
"'.	c #47B64E",
").	c #37A843",
"!.	c #08943F",
"~.	c #009740",
"{.	c #00953F",
"].	c #007A33",
"^.	c #1A7621",
"/.	c #17681D",
"(.	c #038737",
"_.	c #18923C",
":.	c #9FEA97",
"<.	c #75CF74",
"[.	c #17903B",
"}.	c #008438",
"|.	c #008439",
"1.	c #168831",
"2.	c #208F28",
"3.	c #1B7922",
"4.	c #186A1E",
"5.	c #008639",
"6.	c #008A3B",
"7.	c #CCE4D4",
"8.	c #A7DCAB",
"9.	c #CCEBCE",
"0.	c #EAFAE9",
"a.	c #E7F9E5",
"b.	c #F4FCF4",
"c.	c #F3FCF2",
"d.	c #FCFEFC",
"e.	c #E8FAE6",
"f.	c #E6F9E3",
"g.	c #DEF7DB",
"h.	c #E1F7DF",
"i.	c #D6EFD6",
"j.	c #D6EED8",
"k.	c #A9DDAD",
"l.	c #EDF7EE",
"m.	c #EEF7EF",
"n.	c #EFF8F0",
"o.	c #EEF7EE",
"p.	c #A6D4AD",
"q.	c #1A8839",
"r.	c #196F1F",
"s.	c #124F17",
"t.	c #14621D",
"u.	c #077E31",
"v.	c #138236",
"w.	c #252504",
"x.	c #3F3F22",
"y.	c #F1FBF0",
"z.	c #A3EA9B",
"A.	c #F2FCF1",
"B.	c #424325",
"C.	c #DEF6DD",
"D.	c #CAD0C5",
"E.	c #5B5B42",
"F.	c #2F2F10",
"G.	c #2C2D0E",
"H.	c #505136",
"I.	c #BAC5B8",
"J.	c #85C9A2",
"K.	c #0E7729",
"L.	c #197220",
"M.	c #26962E",
"N.	c #40B448",
"O.	c #DDF7DB",
"P.	c #D0F4CC",
"Q.	c #E3F8E0",
"R.	c #2B2B0B",
"S.	c #343416",
"T.	c #CCD4C5",
"U.	c #B7EFB1",
"V.	c #CFD8CA",
"W.	c #323213",
"X.	c #2A2A0A",
"Y.	c #45462A",
"Z.	c #D2D2CB",
"`.	c #BFC7B8",
" +	c #2D2E0F",
".+	c #595C42",
"++	c #85BF9E",
"@+	c #178528",
"#+	c #1C7C23",
"$+	c #125116",
"%+	c #147122",
"&+	c #0D9940",
"*+	c #D0EAD6",
"=+	c #F7FDF6",
"-+	c #E3F8E1",
";+	c #262605",
">+	c #6A6A54",
",+	c #8B907B",
"'+	c #DDF7DA",
")+	c #909580",
"!+	c #2D2D0D",
"~+	c #D4D4CE",
"{+	c #FBFDFB",
"]+	c #D0ECD2",
"^+	c #9AD3A0",
"/+	c #38AB40",
"(+	c #12822C",
"_+	c #1D8325",
":+	c #028F3B",
"<+	c #C9E4D5",
"[+	c #A7A79A",
"}+	c #4F4F34",
"|+	c #FEFEFE",
"1+	c #525338",
"2+	c #A8A89B",
"3+	c #7D7F6A",
"4+	c #272706",
"5+	c #56563D",
"6+	c #9A9A8B",
"7+	c #EEF2EC",
"8+	c #96D59A",
"9+	c #40B348",
"0+	c #2C993F",
"a+	c #2CA134",
"b+	c #2EA136",
"c+	c #11581A",
"d+	c #008B3B",
"e+	c #C9E4D4",
"f+	c #E6F9E4",
"g+	c #F0FBEF",
"h+	c #EAFAE8",
"i+	c #E6E6E3",
"j+	c #D0D0CA",
"k+	c #E9E9E6",
"l+	c #FAFDF9",
"m+	c #C5C5BC",
"n+	c #838370",
"o+	c #39391B",
"p+	c #676750",
"q+	c #D1EDD3",
"r+	c #3FB14B",
"s+	c #289847",
"t+	c #5EB864",
"u+	c #5EB865",
"v+	c #135618",
"w+	c #127525",
"x+	c #CCE3D4",
"y+	c #E9FAE7",
"z+	c #FFFFFF",
"A+	c #4C4C31",
"B+	c #5C5C44",
"C+	c #505036",
"D+	c #F5FCF4",
"E+	c #F3FBF2",
"F+	c #E7E7E4",
"G+	c #D1ECD4",
"H+	c #44AF50",
"I+	c #218642",
"J+	c #7AC47F",
"K+	c #135819",
"L+	c #1A7420",
"M+	c #259335",
"N+	c #3DB045",
"O+	c #8C8C7B",
"P+	c #929282",
"Q+	c #5F6348",
"R+	c #2E2E10",
"S+	c #BFC7B9",
"T+	c #CECEC7",
"U+	c #4E4E33",
"V+	c #E1F1E7",
"W+	c #5BB661",
"X+	c #7BC580",
"Y+	c #1A7320",
"Z+	c #1D9A3B",
"`+	c #2AA442",
" @	c #DAF7D7",
".@	c #EEFBED",
"+@	c #C8CBC2",
"@@	c #D3D3CD",
"#@	c #FAFEFA",
"$@	c #C4CDBE",
"%@	c #54563B",
"&@	c #2D2D0F",
"*@	c #303011",
"=@	c #D8D8D3",
"-@	c #8AC1A1",
";@	c #70BE79",
">@	c #82C787",
",@	c #145C1A",
"'@	c #068836",
")@	c #00923E",
"!@	c #CEE8D5",
"~@	c #B5E2B9",
"{@	c #D6EED7",
"]@	c #DBF7D8",
"^@	c #DEF4DD",
"/@	c #ADDDB1",
"(@	c #CBE9D2",
"_@	c #E1F2E6",
":@	c #ECF6EE",
"<@	c #E8F5E9",
"[@	c #A3D1AC",
"}@	c #63B26F",
"|@	c #84C889",
"1@	c #028C3A",
"2@	c #0E8436",
"3@	c #3EAF46",
"4@	c #8DDF88",
"5@	c #4CBA52",
"6@	c #2AA743",
"7@	c #018A39",
"8@	c #4DB054",
"9@	c #74C27A",
"0@	c #85C98A",
"a@	c #09782C",
"b@	c #008137",
"c@	c #27993D",
"d@	c #9AE693",
"e@	c #5DC360",
"f@	c #21A142",
"g@	c #35AB44",
"h@	c #21A041",
"i@	c #4FA561",
"j@	c #87CA8C",
"k@	c #166A1E",
"l@	c #188026",
"m@	c #2B9C3A",
"n@	c #3DB146",
"o@	c #6ECD6E",
"p@	c #34AC45",
"q@	c #079740",
"r@	c #00903E",
"s@	c #2FA741",
"t@	c #239934",
"u@	c #0A8537",
"v@	c #008037",
"w@	c #359251",
"x@	c #89CB8E",
"y@	c #186B1E",
"z@	c #1D8024",
"A@	c #1F9935",
"B@	c #3AB046",
"C@	c #80D77D",
"D@	c #43B54A",
"E@	c #2AA543",
"F@	c #027C33",
"G@	c #3EAA46",
"H@	c #60B867",
"I@	c #69B575",
"J@	c #8ACC8F",
"K@	c #127E2A",
"L@	c #008538",
"M@	c #3AAC44",
"N@	c #91E18C",
"O@	c #50BC55",
"P@	c #2FA944",
"Q@	c #34AC44",
"R@	c #3BAF46",
"S@	c #2A9243",
"T@	c #70C075",
"U@	c #86C98B",
"V@	c #8BCC90",
"W@	c #157624",
"X@	c #007532",
"Y@	c #61C563",
"Z@	c #35AE45",
"`@	c #2FA638",
" #	c #138634",
".#	c #13863A",
"+#	c #0F7C39",
"@#	c #7DC482",
"##	c #1A7521",
"$#	c #1A8125",
"%#	c #1F952A",
"&#	c #41B449",
"*#	c #068F3D",
"=#	c #008337",
"-#	c #4AB052",
";#	c #65BB6B",
">#	c #7BC581",
",#	c #88CB8D",
"'#	c #8DCD92",
")#	c #1B7F24",
"!#	c #178E2C",
"~#	c #1FA242",
"{#	c #16993F",
"]#	c #39AC46",
"^#	c #3AAD42",
"/#	c #299E3E",
"(#	c #037432",
"_#	c #7DC682",
":#	c #8CCC91",
"<#	c #187D24",
"[#	c #01722F",
"}#	c #3FB147",
"|#	c #4BB852",
"1#	c #40AE4F",
"2#	c #299343",
"3#	c #5BB761",
"4#	c #69BD6F",
"5#	c #459F5B",
"6#	c #66B473",
"7#	c #8BCB90",
"8#	c #269C2E",
"9#	c #45AA51",
"0#	c #238843",
"a#	c #68BD6E",
"b#	c #228C46",
"c#	c #1E8744",
"d#	c #65B371",
"e#	c #81C887",
"f#	c #85CA8B",
"g#	c #3CA944",
"h#	c #64BA6A",
"i#	c #78C37D",
"j#	c #7EC683",
"k#	c #81C886",
"l#	c #84C989",
"        . + @ . . # .                                           ",
"      . $ % & * = - ; > , # #                                   ",
"      # ' ) ! ~ { ] ^ / ( _ : < #                               ",
"      [ } | 1 1 2 3 4 5 6 7 8 9 0 a b                           ",
"    c d e 1 1 f 1 g h i j 7 k l m n o p b                       ",
"    q ] r 1 1 s t u 1 1 v w x y z A 8 B C D                     ",
"    E F G 1 1 H H I J g 1 K 1 1 L 7 7 M N O P D                 ",
"  . Q R 1 1 1 H H H H S T 1 1 1 U V V W X Y X Z `               ",
"  ,  ...1 1 1 H H H H H s +.@.1 #.$.w %.1 &.7 8 *.=.            ",
"  -.A ;.>.1 1 H H H H H H H s ,.'.1 ).h 1 !.~.{.].^./.          ",
"  (.7 V _.1 1 H H H H H H H H H :.<.h 1 1 [.}.|.1.2.3.4.        ",
"  5.V 6.7.8.9.0.0.a.0.b.c.d.e.H f.g.h.i.j.k.l.m.n.o.p.q.r.      ",
"s.t.u.v.j.w.w.w.w.w.0.w.w.x.y.z.A.B.w.w.C.D.E.F.G.H.I.J.K.L.    ",
"# /.M.N.j.w.w.y.O.P.Q.w.R.S.T.U.V.W.X.w.Q.Y.w.Z.`. +.+++@+#+    ",
"$+%+8 &+*+w.w.=+-+P.Q.w.;+>+,+'+)+>+w.w.0.!+w.~+{+l.]+^+/+(+_+  ",
"b :+7 ~.<+w.w.w.w.w.0.w.w.[+}+|+1+2+w.w.0.3+w.4+5+6+7+8+9+0+a+b+",
"c+d+~.7 e+w.w.f+g+h+g.w.w.i+w.j+;+k+w.w.0.l+m+n+o+w.p+q+r+s+t+u+",
"v+w+5.w x+w.w.y+H H a.w.w.z+A+B+C+z+w.w.0.y.D+E+F+w.!+G+H+I+J+  ",
"K+L+M+N+j.w.w.-+H H 0.w.w.z+O+w.P+z+w.w.0.Q+R+S+T+w.U+V+W+X+    ",
"D Y+Z+`+j.w.w.Q.H H  @w.w..@+@w.@@#@w.w.z+$@%@&@*@B+=@-@;@>@    ",
",@'@7 )@!@~@{@0.H H g.0.0.]@f+0.0.g.^@j.j./@(@_@:@<@[@}@|@      ",
"  1@~.8 2@1 3@H H H H H H H H H 4@5@1 g 1 6@7 7 7@8@9@0@        ",
"  a@5.b@c@1 1 H H H H H H H d@e@1 1 f@g@1 h@7 7 }.i@j@          ",
"  k@l@m@n@1 1 H H H H H H o@1 h p@q@7 r@s@t@u@v@w@x@            ",
"  y@z@A@B@1 1 H H H H C@D@1 1 1 E@{.7 {.F@G@H@I@J@              ",
"    K@7 L@M@1 H H N@O@1 1 P@Q@h R@r@8 d+S@T@U@V@                ",
"    W@W X@1 1 I Y@1 1 1 Z@V 7 }.`@ #.#+#@#V@                    ",
"    ##$#%#&#1 g 1 1 1 1 *#{.7 =#-#;#>#,#'#                      ",
"      )#!#9+1 1 ~#{#]#^#/#d+}.(#_#x@:#                          ",
"      <#[#}#|#1#k M 2#3#4#5#6#x@7#                              ",
"        8#9#0#a#b#c#d#e#f#,#                                    ",
"        g#h#i#j#k#l#                                            "};
