/* XPM */
static const char * const fmslogo_20x20_xpm[] = {
"20 20 198 2",
"  	c None",
". 	c #104E16",
"+ 	c #12571B",
"@ 	c #115719",
"# 	c #0F5418",
"$ 	c #0C5F20",
"% 	c #5FB960",
"& 	c #40A947",
"* 	c #038F3C",
"= 	c #0D8132",
"- 	c #187621",
"; 	c #048535",
"> 	c #0E5F1F",
", 	c #124F15",
"' 	c #0F561A",
") 	c #177E2F",
"! 	c #98E591",
"~ 	c #93E18D",
"{ 	c #5FC166",
"] 	c #34A544",
"^ 	c #1A9D3E",
"/ 	c #009741",
"( 	c #078433",
"_ 	c #1B7722",
": 	c #145F1B",
"< 	c #115317",
"[ 	c #06702B",
"} 	c #008639",
"| 	c #94E38E",
"1 	c #A0EA98",
"2 	c #9FE997",
"3 	c #55BC5B",
"4 	c #047E35",
"5 	c #27983B",
"6 	c #119836",
"7 	c #009540",
"8 	c #0F7C2B",
"9 	c #155C1A",
"0 	c #135919",
"a 	c #309E3D",
"b 	c #7ED57C",
"c 	c #4AB850",
"d 	c #04903C",
"e 	c #009740",
"f 	c #088634",
"g 	c #1E8A26",
"h 	c #117325",
"i 	c #127526",
"j 	c #34AA43",
"k 	c #A1EB99",
"l 	c #9AE592",
"m 	c #6BC96E",
"n 	c #1C8F41",
"o 	c #3CAD45",
"p 	c #03933D",
"q 	c #009640",
"r 	c #0E7729",
"s 	c #0C6422",
"t 	c #00943E",
"u 	c #52B276",
"v 	c #C3EFC0",
"w 	c #CFF4CB",
"x 	c #BCF0B6",
"y 	c #CAF3C6",
"z 	c #CBF3C6",
"A 	c #CAF1C7",
"B 	c #B1E2B2",
"C 	c #89C79D",
"D 	c #7FC29B",
"E 	c #8BC496",
"F 	c #589D5D",
"G 	c #0F5C1E",
"H 	c #038736",
"I 	c #A0D0AE",
"J 	c #000000",
"K 	c #D8F6D5",
"L 	c #CEE4CC",
"M 	c #DBF7D8",
"N 	c #E2E9E2",
"O 	c #C2F2BD",
"P 	c #CDDACC",
"Q 	c #2A2A2A",
"R 	c #060606",
"S 	c #9ED4AE",
"T 	c #0C822E",
"U 	c #135719",
"V 	c #20922E",
"W 	c #B0DFB3",
"X 	c #F6FDF6",
"Y 	c #E0F8DE",
"Z 	c #CED4CE",
"` 	c #E7E7E7",
" .	c #FFFFFF",
"..	c #A9D7B6",
"+.	c #108633",
"@.	c #1B7C23",
"#.	c #106520",
"$.	c #99D1B0",
"%.	c #EFFBEE",
"&.	c #D7F6D4",
"*.	c #D6D6D6",
"=.	c #D6DCD5",
"-.	c #D9D9D9",
";.	c #D5F4D2",
">.	c #75D074",
",.	c #27953A",
"'.	c #289B31",
").	c #0E6822",
"!.	c #00913E",
"~.	c #98CEAF",
"{.	c #E0F8DD",
"].	c #D3F5D0",
"^.	c #768474",
"/.	c #F5FCF4",
"(.	c #E5E5E5",
"_.	c #D1F2D0",
":.	c #57BF5C",
"<.	c #2B9648",
"[.	c #64BB6B",
"}.	c #155F1A",
"|.	c #219033",
"1.	c #AFDEB4",
"2.	c #EEFBED",
"3.	c #0C0C0C",
"4.	c #9BD5B1",
"5.	c #30A048",
"6.	c #74C07C",
"7.	c #12671E",
"8.	c #0E963C",
"9.	c #6FC185",
"0.	c #CDF2CA",
"a.	c #C1F1BC",
"b.	c #D3F5CF",
"c.	c #C2E9C2",
"d.	c #ADDDB5",
"e.	c #ADDDB3",
"f.	c #68B782",
"g.	c #4EA762",
"h.	c #0D7226",
"i.	c #058A3A",
"j.	c #93E38D",
"k.	c #9DE896",
"l.	c #85DA82",
"m.	c #47B74D",
"n.	c #25A442",
"o.	c #11913C",
"p.	c #73C179",
"q.	c #11802B",
"r.	c #2C9F3F",
"s.	c #87DC83",
"t.	c #52BD5E",
"u.	c #089940",
"v.	c #23A243",
"w.	c #209938",
"x.	c #00863A",
"y.	c #389954",
"z.	c #1A7D24",
"A.	c #1D9D3D",
"B.	c #93E28D",
"C.	c #9DE895",
"D.	c #5EC362",
"E.	c #43B54A",
"F.	c #1EA042",
"G.	c #028739",
"H.	c #4EB155",
"I.	c #75BE7C",
"J.	c #157724",
"K.	c #007E36",
"L.	c #9CE895",
"M.	c #7BD479",
"N.	c #3DB146",
"O.	c #029640",
"P.	c #048C3A",
"Q.	c #299E37",
"R.	c #11883B",
"S.	c #399A53",
"T.	c #88CA8C",
"U.	c #1C8927",
"V.	c #96E48F",
"W.	c #7FD67C",
"X.	c #47B755",
"Y.	c #3AAF45",
"Z.	c #2AA340",
"`.	c #008036",
" +	c #6BBD71",
".+	c #83C889",
"++	c #0D7C2B",
"@+	c #4BB752",
"#+	c #4AB454",
"$+	c #008F3D",
"%+	c #299545",
"&+	c #65BB6B",
"*+	c #4CA360",
"=+	c #84C78A",
"-+	c #5AB463",
";+	c #73C079",
">+	c #61B26F",
",+	c #75BE7E",
"    . + + @ #                           ",
"    $ % & * = - ; > ,                   ",
"  ' ) ! ~ { ] ^ / ( _ : <               ",
"  [ } | 1 2 ~ 3 4 5 6 7 8 9             ",
"  0 a | 1 1 1 1 b c d e f g h           ",
"  i j | 1 1 1 1 k l m n o p q r         ",
"s t u v w w x y z 1 w A B C D E F       ",
"G H I J J J K J L M N J O P Q R S T     ",
"U V W J X Y K J J Z J J K J `  ...+.@.  ",
"#.7 $.J J %.&.J *.J *.J K =.J -.;.>.,.'.",
").!.~.J X {.].J %.^.Y J K /.(.J _.:.<.[.",
"}.|.1.J Y 1 K J 2.1 X J K 3.J -.4.5.6.  ",
"7.8.9.0.K 1 a.b.K 1 K K K c.d.e.f.g.    ",
"h.t i.j.1 1 1 1 1 1 k.l.m.n.e o.p.      ",
"  q.r.j.1 1 1 1 1 s.t.u.v.w.x.y.        ",
"  z.A.B.1 1 1 C.D.E.F.q G.H.I.          ",
"  J.K.j.1 L.M.N.O.P.Q.R.S.T.            ",
"    U.V.W.X.Y.Z.!.`. +.+                ",
"    ++@+#+$+%+&+*+=+                    ",
"      -+;+>+,+                          "};
