/* XPM */
static const char * const fmslogo_24x24_xpm[] = {
"24 24 304 2",
"  	c None",
". 	c #114F16",
"+ 	c #11571B",
"@ 	c #125318",
"# 	c #115417",
"$ 	c #105418",
"% 	c #114E15",
"& 	c #0F6523",
"* 	c #1E8234",
"= 	c #2C8934",
"- 	c #0C8B38",
"; 	c #0A8334",
"> 	c #16681C",
", 	c #12641E",
"' 	c #0C6B25",
") 	c #0F561A",
"! 	c #115116",
"~ 	c #278730",
"{ 	c #3FB246",
"] 	c #3FB347",
"^ 	c #19933C",
"/ 	c #0E8236",
"( 	c #33A43C",
"_ 	c #05953C",
": 	c #009540",
"< 	c #0B7B2C",
"[ 	c #16601B",
"} 	c #135417",
"| 	c #0D5B1D",
"1 	c #048A38",
"2 	c #1B913B",
"3 	c #3FB447",
"4 	c #63C666",
"5 	c #44B54B",
"6 	c #3EB246",
"7 	c #3AAE45",
"8 	c #038F3C",
"9 	c #00903E",
"0 	c #0D8732",
"a 	c #1F9229",
"b 	c #177F27",
"c 	c #126821",
"d 	c #135618",
"e 	c #0C5C1E",
"f 	c #018236",
"g 	c #1B8E3A",
"h 	c #98E591",
"i 	c #93E18D",
"j 	c #68C969",
"k 	c #40B348",
"l 	c #33A743",
"m 	c #21953D",
"n 	c #35A740",
"o 	c #149B3B",
"p 	c #00953F",
"q 	c #008C3B",
"r 	c #197521",
"s 	c #17631C",
"t 	c #115216",
"u 	c #278B31",
"v 	c #3DB046",
"w 	c #94E38E",
"x 	c #A0EA98",
"y 	c #9FE997",
"z 	c #59C05D",
"A 	c #068F3C",
"B 	c #009740",
"C 	c #00873A",
"D 	c #15892B",
"E 	c #1B8827",
"F 	c #107527",
"G 	c #145D1A",
"H 	c #12601C",
"I 	c #2D9C3C",
"J 	c #3DB245",
"K 	c #7ED57C",
"L 	c #4AB850",
"M 	c #33A742",
"N 	c #0B8538",
"O 	c #22943C",
"P 	c #38AF45",
"Q 	c #00943F",
"R 	c #009440",
"S 	c #0D782A",
"T 	c #16651C",
"U 	c #028F3B",
"V 	c #00913E",
"W 	c #2AA141",
"X 	c #A1EB99",
"Y 	c #9AE592",
"Z 	c #71CE70",
"` 	c #47B74E",
" .	c #39AF45",
"..	c #038D3C",
"+.	c #008D3C",
"@.	c #0C7F2F",
"#.	c #1A7821",
"$.	c #176A1D",
"%.	c #0E5C1D",
"&.	c #008F3D",
"*.	c #188A39",
"=.	c #A5DAA8",
"-.	c #CDF2CA",
";.	c #D8F6D5",
">.	c #E0F8DE",
",.	c #DBF7D8",
"'.	c #E5F9E3",
").	c #D3F5CF",
"!.	c #B7EFB1",
"~.	c #EAF9E8",
"{.	c #C4E9C4",
"].	c #DEF2DF",
"^.	c #CCE9D0",
"/.	c #C8E5CE",
"(.	c #87CB8D",
"_.	c #20942B",
":.	c #11802C",
"<.	c #186E1E",
"[.	c #125217",
"}.	c #117726",
"|.	c #188737",
"1.	c #CDEACF",
"2.	c #000000",
"3.	c #F5FCF4",
"4.	c #DBF7D9",
"5.	c #CDF3C8",
"6.	c #F3FCF2",
"7.	c #DDF7DA",
"8.	c #D5F3D4",
"9.	c #B3E1B6",
"0.	c #1C9E3F",
"a.	c #008E3C",
"b.	c #117827",
"c.	c #125417",
"d.	c #15852B",
"e.	c #26A642",
"f.	c #35AB44",
"g.	c #FFFFFF",
"h.	c #FAFEFA",
"i.	c #B4C9B1",
"j.	c #F6FDF6",
"k.	c #D0D0D0",
"l.	c #D4F1D4",
"m.	c #A6DCA9",
"n.	c #33A944",
"o.	c #188E39",
"p.	c #249330",
"q.	c #187E24",
"r.	c #105D1C",
"s.	c #02943E",
"t.	c #0C8D3B",
"u.	c #D8EFDA",
"v.	c #ECFAEA",
"w.	c #C0CBBE",
"x.	c #B6CAB4",
"y.	c #DEF7DC",
"z.	c #75D074",
"A.	c #3CAD45",
"B.	c #299937",
"C.	c #2C9F34",
"D.	c #0F621F",
"E.	c #008F3C",
"F.	c #00933F",
"G.	c #0A8839",
"H.	c #FDFEFD",
"I.	c #CDF4C9",
"J.	c #EAFAE9",
"K.	c #CBF3C6",
"L.	c #E3F8E1",
"M.	c #DDF5DB",
"N.	c #56BF5A",
"O.	c #3CAC4B",
"P.	c #44A857",
"Q.	c #60B967",
"R.	c #155B19",
"S.	c #178530",
"T.	c #1C933B",
"U.	c #2C9E3F",
"V.	c #B2E0B5",
"W.	c #F2FCF1",
"X.	c #D6F5D2",
"Y.	c #D3F5D0",
"Z.	c #D0F3CC",
"`.	c #B3BFB2",
" +	c #D0ECD2",
".+	c #29A844",
"++	c #239F41",
"@+	c #50B15A",
"#+	c #61B26E",
"$+	c #155E1B",
"%+	c #1E8A2E",
"&+	c #2BA541",
"*+	c #C6E8C9",
"=+	c #E8F9E6",
"-+	c #E0F8DD",
";+	c #141514",
">+	c #161616",
",+	c #C2E6C4",
"'+	c #0C913C",
")+	c #007D36",
"!+	c #74BF7A",
"~+	c #116820",
"{+	c #01933D",
"]+	c #1F973D",
"^+	c #CEEBD0",
"/+	c #E9F9E8",
"(+	c #E7F9E5",
"_+	c #EBFAEA",
":+	c #DCF4DB",
"<+	c #B8E3BA",
"[+	c #DCF1DE",
"}+	c #D4EDD9",
"|+	c #ACDCBB",
"1+	c #27A040",
"2+	c #3EA649",
"3+	c #5EB16B",
"4+	c #85C98A",
"5+	c #018B3A",
"6+	c #008B3B",
"7+	c #1F933B",
"8+	c #3FB247",
"9+	c #93E28D",
"0+	c #87DC83",
"a+	c #5CC360",
"b+	c #3AAF46",
"c+	c #3AAF45",
"d+	c #3DB246",
"e+	c #0E9940",
"f+	c #009841",
"g+	c #05883A",
"h+	c #6DBC74",
"i+	c #86C98B",
"j+	c #147625",
"k+	c #229437",
"l+	c #3CAF46",
"m+	c #93E38D",
"n+	c #9DE895",
"o+	c #60C562",
"p+	c #43B54A",
"q+	c #30AA44",
"r+	c #089940",
"s+	c #06933E",
"t+	c #30A740",
"u+	c #169037",
"v+	c #008338",
"w+	c #369753",
"x+	c #89CB8D",
"y+	c #1A7520",
"z+	c #1A9633",
"A+	c #33AA44",
"B+	c #9CE895",
"C+	c #7BD479",
"D+	c #23A242",
"E+	c #0E8334",
"F+	c #56B55D",
"G+	c #70BA79",
"H+	c #8BCC90",
"I+	c #167523",
"J+	c #058136",
"K+	c #40B347",
"L+	c #96E48F",
"M+	c #7FD67C",
"N+	c #53BE58",
"O+	c #36AE45",
"P+	c #159E42",
"Q+	c #1F9D3F",
"R+	c #2EA53D",
"S+	c #058A39",
"T+	c #028137",
"U+	c #59B066",
"V+	c #86C98A",
"W+	c #158028",
"X+	c #229731",
"Y+	c #41B449",
"Z+	c #4CBA52",
"`+	c #0A933E",
" @	c #008639",
".@	c #48AF51",
"+@	c #61B76A",
"@@	c #75C07E",
"#@	c #1B7E23",
"$@	c #198E30",
"%@	c #189D42",
"&@	c #229E42",
"*@	c #3EAF47",
"=@	c #2B9E42",
"-@	c #028739",
";@	c #13823C",
">@	c #82C887",
",@	c #8CCC91",
"'@	c #197F25",
")@	c #16882F",
"!@	c #3FA74F",
"~@	c #51B45C",
"{@	c #05883B",
"]@	c #219147",
"^@	c #6ABB72",
"/@	c #7AC580",
"(@	c #6FB879",
"_@	c #3FA946",
":@	c #66B96D",
"<@	c #79C47E",
"[@	c #72BD7B",
"}@	c #76BF7F",
"      . + @ # $                                 ",
"    % & * = - ; > , ' )                         ",
"    ! ~ { ] ^ / ( _ : < [ }                     ",
"  | 1 2 3 4 5 6 7 8 9 0 a b c d                 ",
"  e f g ] h i j k l m n o p q r s               ",
"  t u v ] w x y i z ] ] A B C D E F G           ",
"  H I J 6 w x x x x K L M N O P Q R S T         ",
"  U V W 6 w x x x x X Y Z ` ]  ...+.@.#.$.      ",
"%.&.+.*.=.-.;.>.,.'.).x !.~.{.].^./.(._.:.<.    ",
"[.}.|.6 1.2.2.2.3.2.4.5.6.2.7.8.2.2.9.0.a.b.    ",
"c.d.e.f.1.2.g.h.h.2.2.i.2.2.j.2.k.l.m.n.o.p.q.  ",
"r.s.B t.u.2.2.v.v.2.w.2.x.2.>.2.2.g.y.z.k A.B.C.",
"D.E.F.G.u.2.H.I.J.2.K.2.j.2.v.L.2.2.M.N.k O.P.Q.",
"R.S.T.U.V.2.W.x 6.2.X.x 6.2.Y.Z.`.2. +.+++@+#+  ",
"$+%+&+] *+2.=+x -+2.;.x 6.2.,.;+>+,+u.'+)+!+    ",
"~+{+F.]+^+/+=+x ;.(+;.x _+:+<+[+}+|+1+2+3+4+    ",
"  5+6+7+8+9+x x x x x 0+a+b+c+d+e+f+g+h+i+      ",
"  j+k+l+] m+x x x n+o+p+q+r+s+t+u+v+w+x+        ",
"  y+z+A+] m+x B+C+] d+] D+Q Q E+F+G+H+          ",
"  I++.J+K+L+M+N+] O+P+Q+R+S+T+U+V+              ",
"    W+X+Y+Z+Y+] ] `+B  @.@+@@@H+                ",
"    #@$@Y+Y+%@&@*@=@-@;@>@,@                    ",
"    '@)@!@~@{@]@^@/@(@H+                        ",
"      _@:@<@[@}@                                "};
